<svg xmlns="http://www.w3.org/2000/svg" viewBox="0 0 135.6 201" width="22" height="32"><path fill="#aa142d" d="M65.7 82.5 23.4 132c-1.9 2-3 5.5-2 8a6.9 6.9 0 0 0 6.4 4.3c1.6 0 3-.5 4.7-2.3l52.3-54.2A9 9 0 0 0 85 75Z"/><path fill="#bdb9b4" d="M64.8 81.5 104 31.9c2.2-2.9 3.2-4.4 2.2-6.9a7.5 7.5 0 0 0-6.6-4.6 5.9 5.9 0 0 0-4.4 1.6l-50 53c-3.9 3.9-3.9 8.8 0 12.7l70 73.4a5.7 5.7 0 0 0 4.6 1.8c2.8 0 4.7-1.7 6-4.2 1-2.5-.2-5-2.1-7.6L64.9 81.5"/><path fill="#aa142d" d="M84.9 75 16.5 3.2S14 .1 11.3 0A6.8 6.8 0 0 0 5 4c-1 2.6-.3 4.3 2 7.6l58.7 71Z"/><path d="M81.4 201a2.2 2.2 0 0 1-2-1.1L71 185.7 62.4 200a2.2 2.2 0 0 1-2 1.1 2.3 2.3 0 0 1-2.3-2.3 2.3 2.3 0 0 1 .4-1.2l9.9-16-8.1-13a2.7 2.7 0 0 1-.4-1.2 2.3 2.3 0 0 1 2.4-2.3 2 2 0 0 1 1.9 1l6.7 11.5 6.8-11.5a2 2 0 0 1 1.8-1 2.3 2.3 0 0 1 2.4 2.3 2.7 2.7 0 0 1-.3 1.2l-8.1 13 9.8 16a2 2 0 0 1 .4 1.2 2.4 2.4 0 0 1-2.3 2.3Zm-43.3-25.4c1 0 1.7.6 2.2 1.9a2.8 2.8 0 0 1 2.6-2H51a2.2 2.2 0 0 1 2.3 2.3v4.3a2 2 0 0 1-2.3 2.2 2 2 0 0 1-2.2-2.2v-2H43a1.3 1.3 0 0 0-1.4 1.4v15H47a2.2 2.2 0 1 1 0 4.4H32.6a2.2 2.2 0 0 1 0-4.4H37V180h-4a2.2 2.2 0 0 1 0-4.4Zm61.3 0a2 2 0 0 1 2.3 2.2v18.7h5.5a2.2 2.2 0 1 1 0 4.4H91.5a2.2 2.2 0 1 1 0-4.4h5.7V180h-4.7a2.2 2.2 0 0 1 0-4.4Zm2.3-9.7a3.2 3.2 0 1 1-3.2-3.2 3.2 3.2 0 0 1 3.2 3.2Zm33.9 11.9a2.5 2.5 0 0 1-.1.9l-8.2 20.9a2 2 0 0 1-2 1.3H122a2 2 0 0 1-2.1-1.3l-8.3-21a1.8 1.8 0 0 1-.2-.8 2.2 2.2 0 0 1 2.3-2.2 2 2 0 0 1 2 1.4l8 19.9 7.6-19.9a2 2 0 0 1 2-1.4 2.2 2.2 0 0 1 2.3 2.2Zm-117.8-2.2a4.3 4.3 0 0 1 4.5 4.6v20.7H2.8a2.6 2.6 0 0 1-2.8-2.7v-7.1a4.5 4.5 0 0 1 3.8-4.5l14-2V180H2.3a2.2 2.2 0 0 1-2.3-2.2 2.2 2.2 0 0 1 2.4-2.2Zm0 20.9v-7.3L4.5 191v5.5Z"/></svg>