<svg xmlns="http://www.w3.org/2000/svg" viewBox="0 0 130 130" width="32" height="32"><circle cx="65" cy="65" r="64" fill="#fcb425"/><path fill="#231f20" d="M49.82 84.56H37.96v-4.83c-1.2 1.51-4.03 3.05-5.26 3.75a16.75 16.75 0 0 1-7.81 1.98c-4.43 0-8.38-1.4-11.83-4.44C8.93 77.38 7 71.82 7 65.82c0-6.09 2.1-10.95 6.33-14.59 3.36-2.9 7.46-5.2 11.82-5.2 2.53 0 5.66.22 7.88 1.3 1.29.6 3.58 2.06 4.93 3.46V25.37h11.86zM37.7 65.86c0-2.25-.62-4.94-2.2-6.5-1.6-1.6-4.48-3-6.73-3-2.51 0-4.84 1.82-6.45 3.72a9.55 9.55 0 0 0-1.96 5.87 9.1 9.1 0 0 0 2.05 5.7c1.58 1.9 3.3 3.2 5.83 3.2 2.28 0 4.99-.96 6.55-2.52 1.59-1.56 2.9-4.18 2.9-6.46z"/><path fill="#fff" d="M105.43 25.62c-1.97 0-3.65.69-5.03 2.07a6.79 6.79 0 0 0-2.04 5 6.9 6.9 0 0 0 2.04 5.03 6.85 6.85 0 0 0 5.03 2.07c2 0 3.67-.68 5.03-2.03a6.9 6.9 0 0 0 2.07-5.07c0-1.98-.69-3.64-2.07-5a6.85 6.85 0 0 0-5.03-2.07zM74.22 45.5c-7.32 0-12.97 2.28-16.94 6.85a19.3 19.3 0 0 0-4.92 13c0 5.44 1.63 10.02 4.88 13.74 3.94 4.54 9.48 6.81 16.6 6.81 7.09 0 12.6-2.27 16.55-6.8a19.72 19.72 0 0 0 4.88-13.42c0-5.16-1.64-9.6-4.92-13.33-4.02-4.57-9.4-6.85-16.13-6.85zm24.9 1.38v37.64h12.6V46.89h-12.6zm-25.27 10.1c2.3 0 4.26.85 5.87 2.55a8.47 8.47 0 0 1 2.46 6.16 8.7 8.7 0 0 1-2.42 6.24 7.9 7.9 0 0 1-5.91 2.51 7.78 7.78 0 0 1-6.38-3.08 8.77 8.77 0 0 1-2-5.67c0-2.1.67-3.99 2-5.63a7.78 7.78 0 0 1 6.38-3.08z"/></svg>