<svg xmlns="http://www.w3.org/2000/svg" xml:space="preserve" width="32" height="32" viewBox="0 0 303.2 303.2"><path fill="#e8e8e8" d="M219.8 0h-187v303.2h237.5V50.5z"/><path fill="#fb3449" d="M230 150c-3.6-6.6-16.2-8.6-22-9.5-4.5-.7-9.2-1-13.8-1-3.6 0-7.2.2-10.7.4l-3.9.3a139.7 139.7 0 0 1-23-34.9 121 121 0 0 0 3-16.4 68.8 68.8 0 0 0-2.2-32.3c-1.4-3.4-5-7.6-9.1-5.5-4.8 2.4-6.1 9.2-6.5 14-.3 3.8-.1 7.7.5 11.5a165.3 165.3 0 0 0 6.5 21c-.8 2.7-1.7 5.3-2.6 7.7-2.1 5.7-4.5 11-6.7 16.2L136 129c-3.6 7.9-7.4 15.6-11.8 23a129 129 0 0 0-26.9 12.6c-4 2.7-7.6 5.5-10.6 8.7-2.8 2.9-5.7 6.7-6 11a7 7 0 0 0 2.8 6.1c2.7 2 6.3 1.9 9.4 1.2 10.3-2.1 18.2-11 24.9-18.4 4.6-5 9.8-11.6 15.3-19.4a232.6 232.6 0 0 1 46-9.2 72 72 0 0 0 22.6 14.2c3.7 1.3 7.6 2.3 11.5 3l6 .3c4.7-.2 11.4-2 11.8-7.6a8 8 0 0 0-1-4.6zm-110.9 10.2a107 107 0 0 1-6.2 9c-4.8 6.7-10.3 14.5-18.3 17.4-1.5.5-3.5 1.1-5.6 1-1.9-.1-3.7-1-3.7-3a9 9 0 0 1 1.5-4c.9-1.6 2-3 3.2-4.2 2.7-2.8 6-5.5 9.8-8a121 121 0 0 1 20.7-10.3l-1.4 2.1zM146.4 76a38.2 38.2 0 0 1 .7-15.5c.4-1.3 1.3-4.5 2.8-5 2.4-.7 3.2 4.6 3.5 6a66.1 66.1 0 0 1-2.7 29.9 121.2 121.2 0 0 1-4.3-15.4zm16.6 66.3a225 225 0 0 0-26 5.7c1-.3 5.5-8.8 6.5-10.6 4.8-8.3 8.6-17 11.4-26.2a128 128 0 0 0 20.2 29.5c-4 .4-8.1 1-12 1.6zm61.8 11.7c-.3 1.8-4.2 2.8-6 3-5.3 1-11 .2-16-1.5a51.4 51.4 0 0 1-19-11.3 131.7 131.7 0 0 1 20.8.4 37 37 0 0 1 19 7.2c1 .8 1.3 1.5 1.2 2.2zm2.8-128.7H32.8V0h187z"/><path fill="#a4a9ad" d="M126.8 241.2c0 5.3-1.5 9.5-4.7 12.4a19.4 19.4 0 0 1-13.5 4.4H105v15.9H92v-48h16.6c6 0 10.6 1.3 13.7 4 3 2.6 4.5 6.4 4.5 11.3zm-21.8 6.2h2.3c2 0 3.5-.6 4.7-1.7a6 6 0 0 0 1.7-4.5c0-3.2-1.8-4.8-5.4-4.8H105v11zm70.2 1.5c0 8-2.2 14.1-6.6 18.5s-10.6 6.5-18.6 6.5h-15.5v-48H151c7.7 0 13.6 2 17.8 5.9 4.2 4 6.3 9.6 6.3 17zm-13.4.4c0-4.4-1-7.6-2.6-9.8-1.8-2-4.4-3.1-8-3.1h-3.7v26.8h2.8c4 0 6.9-1.1 8.7-3.4 1.8-2.3 2.8-5.8 2.8-10.5zm34.8 24.6h-12.8v-48h28.4v10.4h-15.6v9.2H211v10.4h-14.4v18z"/><path fill="#d1d3d3" d="M219.8 50.5h50.5L219.8 0z"/></svg>